<!DOCTYPE svg PUBLIC "-//W3C//DTD SVG 1.1//EN" "http://www.w3.org/Graphics/SVG/1.1/DTD/svg11.dtd">
<!-- Uploaded to: SVG Repo, www.svgrepo.com, Transformed by: SVG Repo Mixer Tools -->
<svg fill="#ffffff" width="800px" height="800px" viewBox="0 0 32 32" xmlns="http://www.w3.org/2000/svg" stroke="#ffffff">
<g id="SVGRepo_bgCarrier" stroke-width="0"/>
<g id="SVGRepo_tracerCarrier" stroke-linecap="round" stroke-linejoin="round"/>
<g id="SVGRepo_iconCarrier"> <path d="M22.698 12.286c0 0-0.516-4.391-5.276-4.51-4.76-0.125-7.203 3.292-7.203 8.172s2.703 8.786 7.333 8.786c4.63 0 5.146-4.88 5.146-4.88l8.875 0.484c0 0 0.521 4.411-3.193 7.771-3.714 3.365-8.271 3.911-11.453 3.891-3.188-0.026-7.599 0.047-11.87-3.958-4.266-4-4.99-7.891-4.99-11.714 0-3.818 0.807-8.88 5.885-12.719 3.448-2.604 6.943-3.568 10.443-3.568 14.599 0 15.578 12.333 15.578 12.333z"/> </g>
</svg>